<svg xmlns="http://www.w3.org/2000/svg" width="3806" height="158" viewBox="0 0 3806 158"><defs><linearGradient id="frente" x1="0" x2="0" y1="0" y2="136" gradientUnits="userSpaceOnUse"><stop offset="0" stop-color="#d4d5d6"/><stop offset="0.008" stop-color="#edeeef"/><stop offset="0.025" stop-color="#d2d3d4"/><stop offset="0.2" stop-color="#d5d6d7"/><stop offset="0.45" stop-color="#cecfd0"/><stop offset="0.48" stop-color="#c4c5c6"/><stop offset="0.5" stop-color="#a5a6a7"/><stop offset="0.55" stop-color="#9e9fa0"/><stop offset="0.6" stop-color="#8a8b8c"/><stop offset="0.75" stop-color="#88898a"/><stop offset="0.81" stop-color="#969798"/><stop offset="0.85" stop-color="#a8a9aa"/><stop offset="0.87" stop-color="#c8c9ca"/><stop offset="0.92" stop-color="#d8d9da"/><stop offset="0.95" stop-color="#cdcecf"/><stop offset="0.97" stop-color="#b4b5b6"/><stop offset="1" stop-color="#8c8d8e"/></linearGradient><linearGradient id="pontas" x1="0" x2="1" y1="0" y2="0"><stop offset="0" stop-color="#000" stop-opacity="0.2"/><stop offset="0.01" stop-color="#000" stop-opacity="0"/><stop offset="0.99" stop-color="#000" stop-opacity="0"/><stop offset="1" stop-color="#000" stop-opacity="0.2"/></linearGradient><linearGradient id="rebaixo" x1="0" x2="0" y1="0" y2="48" gradientUnits="userSpaceOnUse"><stop offset="0" stop-color="#969798"/><stop offset="0.12" stop-color="#e6e7e8"/><stop offset="0.85" stop-color="#f3f4f5"/><stop offset="1" stop-color="#dedfe0"/></linearGradient><linearGradient id="paredes" x1="1556" x2="2250" y1="0" y2="0" gradientUnits="userSpaceOnUse"><stop offset="0" stop-color="#000" stop-opacity="0.55"/><stop offset="0.09" stop-color="#000" stop-opacity="0"/><stop offset="0.91" stop-color="#000" stop-opacity="0"/><stop offset="1" stop-color="#000" stop-opacity="0.3"/></linearGradient><linearGradient id="pe-aro" x1="0" x2="0" y1="0" y2="1"><stop offset="0" stop-color="#969798"/><stop offset="0.25" stop-color="#cdcecf"/><stop offset="1" stop-color="#dadbdc"/></linearGradient><linearGradient id="pe-borracha" x1="0" x2="0" y1="0" y2="1"><stop offset="0" stop-color="#242424"/><stop offset="0.35" stop-color="#464646"/><stop offset="1" stop-color="#343434"/></linearGradient><clipPath id="chapa"><path d="M2 0L3804 0A2 2 0 0 1 3806 2L3806 70A85 66 0 0 1 3721 136L85 136A85 66 0 0 1 0 70L0 2A2 2 0 0 1 2 0Z"/></clipPath></defs><path fill="url(#pe-aro)" d="M209 136L460 136L455 146L214 146Z"/><path fill="url(#pe-borracha)" d="M214 145L455 145L448 153Q444 157 436 157L233 157Q225 157 221 153Z"/><path fill="url(#pe-aro)" d="M3346 136L3597 136L3592 146L3351 146Z"/><path fill="url(#pe-borracha)" d="M3351 145L3592 145L3585 153Q3581 157 3573 157L3370 157Q3362 157 3358 153Z"/><path fill="url(#frente)" d="M2 0L3804 0A2 2 0 0 1 3806 2L3806 70A85 66 0 0 1 3721 136L85 136A85 66 0 0 1 0 70L0 2A2 2 0 0 1 2 0Z"/><rect width="3806" height="136" fill="url(#pontas)" clip-path="url(#chapa)"/><path fill="url(#rebaixo)" d="M1556 0C1570 0 1576 4 1580 14L1596 34C1601 44 1610 48 1624 48L2182 48C2196 48 2205 44 2210 34L2226 14C2230 4 2236 0 2250 0Z"/><path fill="url(#paredes)" d="M1556 0C1570 0 1576 4 1580 14L1596 34C1601 44 1610 48 1624 48L2182 48C2196 48 2205 44 2210 34L2226 14C2230 4 2236 0 2250 0Z"/><path fill="none" stroke="#8c8d8e" stroke-width="1.5" d="M1556 0C1570 0 1576 4 1580 14L1596 34C1601 44 1610 48 1624 48L2182 48C2196 48 2205 44 2210 34L2226 14C2230 4 2236 0 2250 0Z"/></svg>
